#!OML:ASF X:\für Bonn\!DataBase\2005_08_10_Bjorn_Final\c3d\bjorn.ASF
:FULLY-SPECIFIED
:DEGREES
245
root -0.756673 21.5749 8.18094 -536.446 39.5013 -533.223
lowerback -9.19626 6.41468 7.0248
upperback 1.17216 7.77052 -0.0291235
thorax 7.33399 4.08305 -2.68028
lowerneck -5.88419 4.64695 12.9409
upperneck 13.0202 6.33909 -8.4217
head 5.56172 3.31609 -4.32724
rclavicle 1.30279e-013 9.93923e-015
rhumerus 71.77 22.1578 -78.4282
rradius 52.8566
rwrist 29.2558
rhand -48.2192 32.5295
rfingers 7.12502
rthumb -20.879 3.63301
lclavicle 1.30279e-013 9.93923e-015
lhumerus 44.0487 -17.5177 87.8614
lradius 81.1949
lwrist 44.4607
lhand -51.7034 -10.7779
lfingers 7.12502
lthumb -24.2231 17.7122
rfemur 363.007 -3.94485 -350.005
rtibia 36.0037
rfoot 12.5564 6.13539
rtoes -30.7176
lfemur -11.429 2.70197 -5.62734
ltibia 32.0949
lfoot 16.1496 14.5138
ltoes -15.9913
246
root -0.760902 21.6924 8.0982 -536.631 39.4812 -533.303
lowerback -9.01035 6.45909 6.99894
upperback 1.23051 7.85553 -0.225641
thorax 7.32625 4.1291 -2.87222
lowerneck -5.85185 4.54909 12.8044
upperneck 12.8924 6.16815 -8.12542
head 5.48514 3.24052 -4.22374
rclavicle -1.70458e-014 1.66979e-014
rhumerus 73.5877 21.5733 -79.0847
rradius 49.3092
rwrist 29.1986
rhand -46.8844 30.4383
rfingers 7.12502
rthumb -19.5962 1.40589
lclavicle -1.70458e-014 1.66979e-014
lhumerus 45.5067 -16.8575 88.8935
lradius 78.53
lwrist 45.7244
lhand -52.5418 -8.41596
lfingers 7.12502
lthumb -25.0268 19.9645
rfemur 362.958 -3.5694 -349.673
rtibia 36.2015
rfoot 13.0591 6.69219
rtoes -30.2274
lfemur -11.5248 3.75433 -5.70899
ltibia 32.6709
lfoot 17.2199 12.5288
ltoes -16.0453
247
root -0.765767 21.7931 8.01666 -537.139 39.4523 -533.664
lowerback -8.64457 6.47082 6.75539
upperback 1.34448 7.93569 -0.461174
thorax 7.25032 4.16615 -3.005
lowerneck -5.86306 4.4536 12.7065
upperneck 12.7953 5.99939 -7.87049
head 5.42895 3.16484 -4.13894
rclavicle -2.60159e-014 4.77083e-015
rhumerus 75.3877 21.0168 -79.8051
rradius 45.9227
rwrist 29.3485
rhand -45.7536 28.5153
rfingers 7.12502
rthumb -18.5087 -0.62412
lclavicle -2.60159e-014 4.77083e-015
lhumerus 46.9042 -16.3121 89.797
lradius 76.0377
lwrist 47.2419
lhand -53.5342 -5.98234
lfingers 7.12502
lthumb -25.9774 22.2622
rfemur 363.1 -3.23863 -349.647
rtibia 36.3147
rfoot 13.7035 7.44514
rtoes -29.2034
lfemur -11.5149 4.80489 -6.02248
ltibia 33.3633
lfoot 18.0696 10.2038
ltoes -17.1495
248
root -0.770208 21.8867 7.93449 -537.777 39.3763 -534.121
lowerback -8.16059 6.44774 6.43428
upperback 1.47148 7.9852 -0.69483
thorax 7.10566 4.1856 -3.11205
lowerneck -5.93417 4.36974 12.5771
upperneck 12.8107 5.85156 -7.60477
head 5.41931 3.10063 -4.0429
rclavicle -5.31873e-014 1.19271e-014
rhumerus 77.1498 20.5296 -80.5113
rradius 42.7234
rwrist 29.6019
rhand -44.6514 27.3027
rfingers 7.12502
rthumb -17.4482 -1.93426
lclavicle -5.31873e-014 1.19271e-014
lhumerus 48.2005 -15.8564 90.5894
lradius 73.6761
lwrist 48.8672
lhand -54.6071 -4.01995
lfingers 7.12502
lthumb -27.0043 24.0698
rfemur 363.354 -2.89391 -349.733
rtibia 36.3441
rfoot 14.5264 8.10461
rtoes -27.8717
lfemur -11.4451 5.47314 -6.43788
ltibia 34.1111
lfoot 18.4577 8.33114
ltoes -17.5887
249
root -0.775148 21.9756 7.851 -538.278 39.2239 -534.385
lowerback -7.64671 6.4136 6.2732
upperback 1.57434 8.0032 -0.903181
thorax 6.93355 4.19539 -3.28933
lowerneck -5.98785 4.29054 12.5181
upperneck 12.8376 5.71054 -7.36558
head 5.41447 3.04269 -3.96666
rclavicle -1.37894e-013 1.43125e-014
rhumerus 78.8057 20.0902 -81.2277
rradius 39.6951
rwrist 29.9856
rhand -43.4532 25.6456
rfingers 7.12502
rthumb -16.2948 -3.68978
lclavicle -1.37894e-013 1.43125e-014
lhumerus 49.3617 -15.507 91.3732
lradius 71.4872
lwrist 50.2975
lhand -55.5564 -2.46392
lfingers 7.12502
lthumb -27.9122 25.4817
rfemur 363.645 -2.56602 -349.67
rtibia 36.277
rfoot 15.4366 8.67659
rtoes -26.5946
lfemur -11.4227 5.86624 -6.70718
ltibia 34.8843
lfoot 18.5103 7.07386
ltoes -17.2128
250
root -0.78033 22.0591 7.76561 -538.681 39.0426 -534.541
lowerback -7.15799 6.3599 6.16999
upperback 1.67365 7.98262 -1.04263
thorax 6.76522 4.18712 -3.4297
lowerneck -5.99175 4.21167 12.4017
upperneck 12.8667 5.59241 -7.17754
head 5.40383 2.99223 -3.89664
rclavicle 2.21769e-014 -1.19271e-014
rhumerus 80.394 19.7516 -81.8862
rradius 36.8424
rwrist 30.4986
rhand -42.1867 23.9481
rfingers 7.12502
rthumb -15.0751 -5.48302
lclavicle 2.21769e-014 -1.19271e-014
lhumerus 50.4046 -15.1922 92.1575
lradius 69.4479
lwrist 51.3955
lhand -56.223 -1.13737
lfingers 7.12502
lthumb -28.5494 26.703
rfemur 363.938 -2.3278 -349.565
rtibia 36.1412
rfoot 16.2715 9.37132
rtoes -25.4273
lfemur -11.4379 6.1544 -6.89206
ltibia 35.6479
lfoot 18.6429 5.99037
ltoes -16.9034
251
root -0.786537 22.1354 7.67886 -538.974 38.817 -534.569
lowerback -6.6758 6.30143 6.17829
upperback 1.76117 7.94326 -1.15801
thorax 6.59809 4.17325 -3.60786
lowerneck -6.03775 4.14527 12.254
upperneck 12.9419 5.48471 -6.93214
head 5.4139 2.94927 -3.8016
rclavicle -1.06226e-013 1.51076e-014
rhumerus 81.8599 19.4415 -82.5875
rradius 34.278
rwrist 31.0637
rhand -40.7564 22.4057
rfingers 7.12502
rthumb -13.6968 -7.12353
lclavicle -1.06226e-013 1.51076e-014
lhumerus 51.3123 -14.9709 92.8713
lradius 67.6136
lwrist 51.9859
lhand -56.4057 0.282044
lfingers 7.12502
lthumb -28.7239 28.0929
rfemur 364.218 -2.17308 -349.387
rtibia 36.0098
rfoot 16.8583 10.1727
rtoes -24.1011
lfemur -11.4944 6.37067 -6.96791
ltibia 36.3613
lfoot 18.9266 4.81269
ltoes -17.6079
